<svg xmlns="http://www.w3.org/2000/svg" xmlns:xlink="http://www.w3.org/1999/xlink" width="1280" zoomAndPan="magnify" viewBox="0 0 960 449.999984" height="600" preserveAspectRatio="xMidYMid meet" version="1.0"><defs><g/><clipPath id="a2790f70ef"><path d="M 244.484375 189.46875 L 308.234375 189.46875 L 308.234375 256.21875 L 244.484375 256.21875 Z M 244.484375 189.46875 " clip-rule="nonzero"/></clipPath><clipPath id="00be5d716c"><path d="M 308.257812 249.226562 L 300.003906 209.410156 C 299.414062 205.898438 296.226562 203.164062 292.664062 203.164062 L 290.707031 203.164062 C 290.625 194.1875 283.527344 189.472656 276.507812 189.472656 C 269.484375 189.472656 262.386719 194.1875 262.304688 203.191406 L 260.347656 203.191406 C 256.785156 203.191406 253.597656 205.925781 253.007812 209.433594 L 244.78125 249.066406 L 244.753906 249.226562 C 244.484375 251.074219 244.996094 252.921875 246.175781 254.316406 C 247.351562 255.683594 249.09375 256.460938 250.996094 256.460938 L 302.066406 256.460938 C 303.945312 256.460938 305.710938 255.683594 306.890625 254.316406 C 308.042969 252.921875 308.550781 251.074219 308.257812 249.226562 Z M 276.507812 195.527344 C 278.675781 195.527344 280.765625 196.253906 282.214844 197.511719 C 283.792969 198.878906 284.597656 200.78125 284.652344 203.191406 L 268.359375 203.191406 C 268.441406 197.914062 272.488281 195.527344 276.507812 195.527344 Z M 302.253906 250.351562 C 302.253906 250.351562 302.175781 250.40625 302.042969 250.40625 L 250.96875 250.40625 C 250.835938 250.40625 250.757812 250.378906 250.757812 250.351562 C 250.757812 250.351562 250.730469 250.296875 250.730469 250.191406 L 258.957031 210.585938 L 258.980469 210.425781 C 259.0625 209.835938 259.757812 209.246094 260.347656 209.246094 L 292.664062 209.246094 C 293.253906 209.246094 293.921875 209.835938 294.03125 210.425781 L 302.28125 250.191406 C 302.28125 250.296875 302.253906 250.324219 302.253906 250.351562 Z M 289.3125 223.234375 C 289.3125 223.261719 289.289062 223.289062 289.289062 223.316406 C 289.289062 223.339844 289.3125 223.367188 289.3125 223.421875 L 289.3125 243.785156 C 289.3125 244.242188 288.9375 244.589844 288.484375 244.589844 L 269.699219 244.589844 C 268.226562 244.589844 263.699219 244.589844 263.699219 241.214844 C 263.699219 235.347656 263.777344 223.339844 263.777344 221.226562 C 263.644531 220.289062 264.152344 219.347656 265.039062 218.921875 C 266.753906 217.957031 281.328125 215.542969 284.277344 215.0625 C 284.652344 215.007812 284.972656 215.25 285.027344 215.597656 L 285.027344 221.144531 L 282.964844 218.546875 C 282.964844 218.546875 268.894531 220.957031 267.90625 221.226562 C 267.449219 221.359375 267.074219 221.839844 266.96875 222.324219 C 267.554688 222.457031 268.332031 222.566406 269.378906 222.589844 L 269.539062 222.589844 L 269.539062 236.285156 L 271.738281 235.050781 L 273.933594 236.285156 L 273.933594 222.589844 L 288.644531 222.589844 C 289.019531 222.566406 289.3125 222.886719 289.3125 223.234375 Z M 289.3125 223.234375 " clip-rule="nonzero"/></clipPath><linearGradient x1="125" gradientTransform="matrix(0.267948, 0, 0, 0.267948, 243.012489, 189.473133)" y1="-0.00000856402" x2="125" gradientUnits="userSpaceOnUse" y2="249.098503" id="915002028e"><stop stop-opacity="1" stop-color="rgb(97.312927%, 48.321533%, 4.063416%)" offset="0"/><stop stop-opacity="1" stop-color="rgb(97.319031%, 48.176575%, 4.148865%)" offset="0.0078125"/><stop stop-opacity="1" stop-color="rgb(97.332764%, 47.886658%, 4.319763%)" offset="0.015625"/><stop stop-opacity="1" stop-color="rgb(97.344971%, 47.596741%, 4.492188%)" offset="0.0234375"/><stop stop-opacity="1" stop-color="rgb(97.358704%, 47.306824%, 4.663086%)" offset="0.03125"/><stop stop-opacity="1" stop-color="rgb(97.372437%, 47.016907%, 4.83551%)" offset="0.0390625"/><stop stop-opacity="1" stop-color="rgb(97.386169%, 46.72699%, 5.006409%)" offset="0.046875"/><stop stop-opacity="1" stop-color="rgb(97.399902%, 46.437073%, 5.178833%)" offset="0.0546875"/><stop stop-opacity="1" stop-color="rgb(97.413635%, 46.147156%, 5.349731%)" offset="0.0625"/><stop stop-opacity="1" stop-color="rgb(97.427368%, 45.857239%, 5.52063%)" offset="0.0703125"/><stop stop-opacity="1" stop-color="rgb(97.441101%, 45.567322%, 5.693054%)" offset="0.078125"/><stop stop-opacity="1" stop-color="rgb(97.454834%, 45.277405%, 5.863953%)" offset="0.0859375"/><stop stop-opacity="1" stop-color="rgb(97.468567%, 44.987488%, 6.036377%)" offset="0.09375"/><stop stop-opacity="1" stop-color="rgb(97.4823%, 44.697571%, 6.207275%)" offset="0.101563"/><stop stop-opacity="1" stop-color="rgb(97.496033%, 44.406128%, 6.3797%)" offset="0.109375"/><stop stop-opacity="1" stop-color="rgb(97.509766%, 44.116211%, 6.550598%)" offset="0.117188"/><stop stop-opacity="1" stop-color="rgb(97.523499%, 43.826294%, 6.721497%)" offset="0.125"/><stop stop-opacity="1" stop-color="rgb(97.537231%, 43.536377%, 6.893921%)" offset="0.132813"/><stop stop-opacity="1" stop-color="rgb(97.550964%, 43.24646%, 7.064819%)" offset="0.140625"/><stop stop-opacity="1" stop-color="rgb(97.563171%, 42.956543%, 7.237244%)" offset="0.148438"/><stop stop-opacity="1" stop-color="rgb(97.576904%, 42.666626%, 7.408142%)" offset="0.15625"/><stop stop-opacity="1" stop-color="rgb(97.590637%, 42.376709%, 7.580566%)" offset="0.164063"/><stop stop-opacity="1" stop-color="rgb(97.60437%, 42.086792%, 7.751465%)" offset="0.171875"/><stop stop-opacity="1" stop-color="rgb(97.618103%, 41.796875%, 7.922363%)" offset="0.179688"/><stop stop-opacity="1" stop-color="rgb(97.631836%, 41.506958%, 8.094788%)" offset="0.1875"/><stop stop-opacity="1" stop-color="rgb(97.645569%, 41.217041%, 8.265686%)" offset="0.195313"/><stop stop-opacity="1" stop-color="rgb(97.659302%, 40.927124%, 8.43811%)" offset="0.203125"/><stop stop-opacity="1" stop-color="rgb(97.673035%, 40.637207%, 8.609009%)" offset="0.210938"/><stop stop-opacity="1" stop-color="rgb(97.686768%, 40.34729%, 8.781433%)" offset="0.21875"/><stop stop-opacity="1" stop-color="rgb(97.7005%, 40.057373%, 8.952332%)" offset="0.226563"/><stop stop-opacity="1" stop-color="rgb(97.714233%, 39.767456%, 9.12323%)" offset="0.234375"/><stop stop-opacity="1" stop-color="rgb(97.727966%, 39.477539%, 9.295654%)" offset="0.242188"/><stop stop-opacity="1" stop-color="rgb(97.741699%, 39.187622%, 9.466553%)" offset="0.25"/><stop stop-opacity="1" stop-color="rgb(97.755432%, 38.896179%, 9.638977%)" offset="0.257813"/><stop stop-opacity="1" stop-color="rgb(97.769165%, 38.606262%, 9.809875%)" offset="0.265625"/><stop stop-opacity="1" stop-color="rgb(97.781372%, 38.316345%, 9.9823%)" offset="0.273438"/><stop stop-opacity="1" stop-color="rgb(97.795105%, 38.026428%, 10.153198%)" offset="0.28125"/><stop stop-opacity="1" stop-color="rgb(97.808838%, 37.736511%, 10.325623%)" offset="0.289062"/><stop stop-opacity="1" stop-color="rgb(97.822571%, 37.446594%, 10.496521%)" offset="0.296875"/><stop stop-opacity="1" stop-color="rgb(97.836304%, 37.156677%, 10.667419%)" offset="0.304688"/><stop stop-opacity="1" stop-color="rgb(97.850037%, 36.86676%, 10.839844%)" offset="0.3125"/><stop stop-opacity="1" stop-color="rgb(97.86377%, 36.576843%, 11.010742%)" offset="0.320312"/><stop stop-opacity="1" stop-color="rgb(97.877502%, 36.286926%, 11.183167%)" offset="0.328125"/><stop stop-opacity="1" stop-color="rgb(97.891235%, 35.997009%, 11.354065%)" offset="0.335938"/><stop stop-opacity="1" stop-color="rgb(97.904968%, 35.707092%, 11.526489%)" offset="0.34375"/><stop stop-opacity="1" stop-color="rgb(97.918701%, 35.417175%, 11.697388%)" offset="0.351562"/><stop stop-opacity="1" stop-color="rgb(97.932434%, 35.127258%, 11.868286%)" offset="0.359375"/><stop stop-opacity="1" stop-color="rgb(97.946167%, 34.837341%, 12.04071%)" offset="0.367188"/><stop stop-opacity="1" stop-color="rgb(97.9599%, 34.547424%, 12.211609%)" offset="0.375"/><stop stop-opacity="1" stop-color="rgb(97.973633%, 34.257507%, 12.384033%)" offset="0.382812"/><stop stop-opacity="1" stop-color="rgb(97.987366%, 33.96759%, 12.554932%)" offset="0.390625"/><stop stop-opacity="1" stop-color="rgb(97.999573%, 33.676147%, 12.727356%)" offset="0.398438"/><stop stop-opacity="1" stop-color="rgb(98.013306%, 33.38623%, 12.898254%)" offset="0.40625"/><stop stop-opacity="1" stop-color="rgb(98.027039%, 33.096313%, 13.069153%)" offset="0.414062"/><stop stop-opacity="1" stop-color="rgb(98.040771%, 32.806396%, 13.241577%)" offset="0.421875"/><stop stop-opacity="1" stop-color="rgb(98.054504%, 32.516479%, 13.412476%)" offset="0.429688"/><stop stop-opacity="1" stop-color="rgb(98.068237%, 32.226562%, 13.5849%)" offset="0.4375"/><stop stop-opacity="1" stop-color="rgb(98.08197%, 31.936646%, 13.755798%)" offset="0.445312"/><stop stop-opacity="1" stop-color="rgb(98.095703%, 31.646729%, 13.928223%)" offset="0.453125"/><stop stop-opacity="1" stop-color="rgb(98.109436%, 31.356812%, 14.099121%)" offset="0.460938"/><stop stop-opacity="1" stop-color="rgb(98.123169%, 31.066895%, 14.27002%)" offset="0.46875"/><stop stop-opacity="1" stop-color="rgb(98.136902%, 30.776978%, 14.442444%)" offset="0.476562"/><stop stop-opacity="1" stop-color="rgb(98.150635%, 30.487061%, 14.613342%)" offset="0.484375"/><stop stop-opacity="1" stop-color="rgb(98.164368%, 30.197144%, 14.785767%)" offset="0.492188"/><stop stop-opacity="1" stop-color="rgb(98.178101%, 29.907227%, 14.956665%)" offset="0.5"/><stop stop-opacity="1" stop-color="rgb(98.191833%, 29.61731%, 15.129089%)" offset="0.507812"/><stop stop-opacity="1" stop-color="rgb(98.205566%, 29.327393%, 15.299988%)" offset="0.515625"/><stop stop-opacity="1" stop-color="rgb(98.217773%, 29.037476%, 15.470886%)" offset="0.523438"/><stop stop-opacity="1" stop-color="rgb(98.231506%, 28.747559%, 15.643311%)" offset="0.53125"/><stop stop-opacity="1" stop-color="rgb(98.245239%, 28.457642%, 15.814209%)" offset="0.539062"/><stop stop-opacity="1" stop-color="rgb(98.258972%, 28.166199%, 15.986633%)" offset="0.546875"/><stop stop-opacity="1" stop-color="rgb(98.272705%, 27.876282%, 16.157532%)" offset="0.554688"/><stop stop-opacity="1" stop-color="rgb(98.286438%, 27.586365%, 16.329956%)" offset="0.5625"/><stop stop-opacity="1" stop-color="rgb(98.300171%, 27.296448%, 16.500854%)" offset="0.570312"/><stop stop-opacity="1" stop-color="rgb(98.313904%, 27.006531%, 16.673279%)" offset="0.578125"/><stop stop-opacity="1" stop-color="rgb(98.327637%, 26.716614%, 16.844177%)" offset="0.585938"/><stop stop-opacity="1" stop-color="rgb(98.34137%, 26.426697%, 17.015076%)" offset="0.59375"/><stop stop-opacity="1" stop-color="rgb(98.355103%, 26.13678%, 17.1875%)" offset="0.601562"/><stop stop-opacity="1" stop-color="rgb(98.368835%, 25.846863%, 17.358398%)" offset="0.609375"/><stop stop-opacity="1" stop-color="rgb(98.382568%, 25.556946%, 17.530823%)" offset="0.617188"/><stop stop-opacity="1" stop-color="rgb(98.396301%, 25.267029%, 17.701721%)" offset="0.625"/><stop stop-opacity="1" stop-color="rgb(98.410034%, 24.977112%, 17.874146%)" offset="0.632812"/><stop stop-opacity="1" stop-color="rgb(98.423767%, 24.687195%, 18.045044%)" offset="0.640625"/><stop stop-opacity="1" stop-color="rgb(98.4375%, 24.397278%, 18.215942%)" offset="0.648438"/><stop stop-opacity="1" stop-color="rgb(98.449707%, 24.107361%, 18.388367%)" offset="0.65625"/><stop stop-opacity="1" stop-color="rgb(98.46344%, 23.817444%, 18.559265%)" offset="0.664062"/><stop stop-opacity="1" stop-color="rgb(98.477173%, 23.527527%, 18.731689%)" offset="0.671875"/><stop stop-opacity="1" stop-color="rgb(98.490906%, 23.23761%, 18.902588%)" offset="0.679688"/><stop stop-opacity="1" stop-color="rgb(98.504639%, 22.947693%, 19.075012%)" offset="0.6875"/><stop stop-opacity="1" stop-color="rgb(98.518372%, 22.65625%, 19.245911%)" offset="0.695312"/><stop stop-opacity="1" stop-color="rgb(98.532104%, 22.366333%, 19.416809%)" offset="0.703125"/><stop stop-opacity="1" stop-color="rgb(98.545837%, 22.076416%, 19.589233%)" offset="0.710938"/><stop stop-opacity="1" stop-color="rgb(98.55957%, 21.786499%, 19.760132%)" offset="0.71875"/><stop stop-opacity="1" stop-color="rgb(98.573303%, 21.496582%, 19.932556%)" offset="0.726562"/><stop stop-opacity="1" stop-color="rgb(98.587036%, 21.206665%, 20.103455%)" offset="0.734375"/><stop stop-opacity="1" stop-color="rgb(98.600769%, 20.916748%, 20.275879%)" offset="0.742188"/><stop stop-opacity="1" stop-color="rgb(98.614502%, 20.626831%, 20.446777%)" offset="0.75"/><stop stop-opacity="1" stop-color="rgb(98.628235%, 20.336914%, 20.617676%)" offset="0.757812"/><stop stop-opacity="1" stop-color="rgb(98.641968%, 20.046997%, 20.7901%)" offset="0.765625"/><stop stop-opacity="1" stop-color="rgb(98.655701%, 19.75708%, 20.960999%)" offset="0.773438"/><stop stop-opacity="1" stop-color="rgb(98.667908%, 19.467163%, 21.133423%)" offset="0.78125"/><stop stop-opacity="1" stop-color="rgb(98.681641%, 19.177246%, 21.304321%)" offset="0.789062"/><stop stop-opacity="1" stop-color="rgb(98.695374%, 18.887329%, 21.476746%)" offset="0.796875"/><stop stop-opacity="1" stop-color="rgb(98.709106%, 18.597412%, 21.647644%)" offset="0.804688"/><stop stop-opacity="1" stop-color="rgb(98.722839%, 18.307495%, 21.820068%)" offset="0.8125"/><stop stop-opacity="1" stop-color="rgb(98.736572%, 18.017578%, 21.990967%)" offset="0.820312"/><stop stop-opacity="1" stop-color="rgb(98.750305%, 17.727661%, 22.161865%)" offset="0.828125"/><stop stop-opacity="1" stop-color="rgb(98.764038%, 17.436218%, 22.33429%)" offset="0.835938"/><stop stop-opacity="1" stop-color="rgb(98.777771%, 17.146301%, 22.505188%)" offset="0.84375"/><stop stop-opacity="1" stop-color="rgb(98.791504%, 16.856384%, 22.677612%)" offset="0.851562"/><stop stop-opacity="1" stop-color="rgb(98.805237%, 16.566467%, 22.848511%)" offset="0.859375"/><stop stop-opacity="1" stop-color="rgb(98.81897%, 16.27655%, 23.020935%)" offset="0.867188"/><stop stop-opacity="1" stop-color="rgb(98.832703%, 15.986633%, 23.191833%)" offset="0.875"/><stop stop-opacity="1" stop-color="rgb(98.846436%, 15.696716%, 23.362732%)" offset="0.882812"/><stop stop-opacity="1" stop-color="rgb(98.860168%, 15.406799%, 23.535156%)" offset="0.890625"/><stop stop-opacity="1" stop-color="rgb(98.873901%, 15.116882%, 23.706055%)" offset="0.898438"/><stop stop-opacity="1" stop-color="rgb(98.886108%, 14.826965%, 23.878479%)" offset="0.90625"/><stop stop-opacity="1" stop-color="rgb(98.899841%, 14.537048%, 24.049377%)" offset="0.914062"/><stop stop-opacity="1" stop-color="rgb(98.913574%, 14.247131%, 24.221802%)" offset="0.921875"/><stop stop-opacity="1" stop-color="rgb(98.927307%, 13.957214%, 24.3927%)" offset="0.929688"/><stop stop-opacity="1" stop-color="rgb(98.94104%, 13.667297%, 24.563599%)" offset="0.9375"/><stop stop-opacity="1" stop-color="rgb(98.954773%, 13.37738%, 24.736023%)" offset="0.945312"/><stop stop-opacity="1" stop-color="rgb(98.968506%, 13.087463%, 24.906921%)" offset="0.953125"/><stop stop-opacity="1" stop-color="rgb(98.982239%, 12.797546%, 25.079346%)" offset="0.960938"/><stop stop-opacity="1" stop-color="rgb(98.995972%, 12.507629%, 25.250244%)" offset="0.96875"/><stop stop-opacity="1" stop-color="rgb(99.009705%, 12.217712%, 25.422668%)" offset="0.976562"/><stop stop-opacity="1" stop-color="rgb(99.023438%, 11.92627%, 25.593567%)" offset="0.984375"/><stop stop-opacity="1" stop-color="rgb(99.03717%, 11.636353%, 25.764465%)" offset="0.992188"/><stop stop-opacity="1" stop-color="rgb(99.050903%, 11.346436%, 25.93689%)" offset="1"/></linearGradient><clipPath id="8e4b6150e4"><path d="M 198 222.464844 L 354.71875 222.464844 L 354.71875 300.464844 L 198 300.464844 Z M 198 222.464844 " clip-rule="nonzero"/></clipPath></defs><rect x="-96" width="1152" fill="#ffffff" y="-44.999998" height="539.99998" fill-opacity="1"/><rect x="-96" width="1152" fill="#ffffff" y="-44.999998" height="539.99998" fill-opacity="1"/><path fill="#000000" d="M 250.757812 250.351562 C 250.757812 250.351562 250.835938 250.40625 250.96875 250.40625 L 302.042969 250.40625 C 302.175781 250.40625 302.253906 250.378906 302.253906 250.351562 C 302.253906 250.351562 302.28125 250.296875 302.28125 250.191406 L 294.03125 210.425781 C 293.949219 209.835938 293.253906 209.246094 292.664062 209.246094 L 260.347656 209.246094 C 259.757812 209.246094 259.089844 209.835938 258.980469 210.425781 L 258.957031 210.585938 L 250.730469 250.191406 C 250.730469 250.296875 250.757812 250.324219 250.757812 250.351562 Z M 250.757812 250.351562 " fill-opacity="1" fill-rule="nonzero"/><g clip-path="url(#a2790f70ef)"><g clip-path="url(#00be5d716c)"><path fill="url(#915002028e)" d="M 244.484375 189.472656 L 244.484375 256.21875 L 308.234375 256.21875 L 308.234375 189.472656 Z M 244.484375 189.472656 " fill-rule="nonzero"/></g></g><g clip-path="url(#8e4b6150e4)"><path fill="#000000" d="M 354.707031 222.167969 C 354.707031 265.628906 319.9375 300.398438 276.476562 300.398438 C 233.015625 300.398438 198.246094 265.628906 198.246094 222.167969 L 206.542969 222.167969 C 206.542969 261.085938 237.558594 292.101562 276.476562 292.101562 C 315.394531 292.101562 346.410156 261.085938 346.410156 222.167969 Z M 354.707031 222.167969 " fill-opacity="1" fill-rule="nonzero"/></g><g fill="#000000" fill-opacity="1"><g transform="translate(221.506005, 213.279938)"><g><path d="M 5.421875 -13.375 L 4.609375 -11.375 L -10.125 -8.5 L 1.53125 -3.765625 L 0.703125 -1.75 L -14.421875 -7.890625 L -13.59375 -9.90625 L 1.203125 -12.78125 L -10.5 -17.53125 L -9.703125 -19.515625 Z M 5.421875 -13.375 "/></g></g></g><g fill="#000000" fill-opacity="1"><g transform="translate(227.577464, 199.299114)"><g/></g></g><g fill="#000000" fill-opacity="1"><g transform="translate(229.841092, 195.057748)"><g><path d="M 1.5625 -13.359375 L -3.0625 -8 L 1.296875 -4.21875 L 6.671875 -10.4375 L 8.015625 -9.28125 L 1.234375 -1.4375 L -11.125 -12.109375 L -4.40625 -19.875 L -3.0625 -18.71875 L -8.375 -12.578125 L -4.40625 -9.15625 L 0.21875 -14.515625 Z M 1.5625 -13.359375 "/></g></g></g><g fill="#000000" fill-opacity="1"><g transform="translate(237.921081, 186.021845)"><g/></g></g><g fill="#000000" fill-opacity="1"><g transform="translate(241.235628, 182.621248)"><g><path d="M 0.9375 -12.359375 L 1.03125 -19.75 L 3.203125 -21.0625 L 3 -11.453125 L 11.78125 -7.171875 L 9.59375 -5.84375 L 2.859375 -9.203125 L 2.71875 -1.65625 L 0.546875 -0.328125 L 0.796875 -10.125 L -7.828125 -14.34375 L -5.6875 -15.65625 Z M 0.9375 -12.359375 "/></g></g></g><g fill="#000000" fill-opacity="1"><g transform="translate(252.809928, 175.895216)"><g/></g></g><g fill="#000000" fill-opacity="1"><g transform="translate(257.57349, 173.919976)"><g><path d="M 4.03125 -1.203125 L 1.96875 -0.578125 L -2.671875 -16.234375 L -0.609375 -16.859375 Z M 4.03125 -1.203125 "/></g></g></g><g fill="#000000" fill-opacity="1"><g transform="translate(263.049648, 172.281923)"><g/></g></g><g fill="#000000" fill-opacity="1"><g transform="translate(267.577661, 170.929216)"><g><path d="M 13.765625 -5.546875 C 13.617188 -3.816406 13.019531 -2.46875 11.96875 -1.5 C 10.914062 -0.53125 9.5 -0.0234375 7.71875 0.015625 C 5.789062 0.0664062 4.222656 -0.578125 3.015625 -1.921875 C 1.816406 -3.273438 1.191406 -5.113281 1.140625 -7.4375 L 1.09375 -9 C 1.050781 -10.519531 1.285156 -11.863281 1.796875 -13.03125 C 2.304688 -14.195312 3.050781 -15.097656 4.03125 -15.734375 C 5.007812 -16.378906 6.15625 -16.71875 7.46875 -16.75 C 9.207031 -16.800781 10.613281 -16.359375 11.6875 -15.421875 C 12.757812 -14.484375 13.398438 -13.15625 13.609375 -11.4375 L 11.453125 -11.390625 C 11.234375 -12.679688 10.800781 -13.609375 10.15625 -14.171875 C 9.519531 -14.742188 8.640625 -15.015625 7.515625 -14.984375 C 6.140625 -14.953125 5.070312 -14.414062 4.3125 -13.375 C 3.5625 -12.34375 3.210938 -10.890625 3.265625 -9.015625 L 3.3125 -7.421875 C 3.351562 -5.648438 3.753906 -4.25 4.515625 -3.21875 C 5.285156 -2.195312 6.335938 -1.703125 7.671875 -1.734375 C 8.867188 -1.765625 9.78125 -2.054688 10.40625 -2.609375 C 11.03125 -3.171875 11.429688 -4.132812 11.609375 -5.5 Z M 13.765625 -5.546875 "/></g></g></g><g fill="#000000" fill-opacity="1"><g transform="translate(281.48081, 170.862733)"><g/></g></g><g fill="#000000" fill-opacity="1"><g transform="translate(286.171364, 170.991447)"><g><path d="M 16.09375 -2.84375 C 15.601562 -1.320312 14.914062 -0.078125 14.03125 0.890625 C 13.15625 1.867188 12.15625 2.503906 11.03125 2.796875 C 9.90625 3.085938 8.71875 3.03125 7.46875 2.625 C 6.25 2.226562 5.257812 1.578125 4.5 0.671875 C 3.75 -0.222656 3.289062 -1.3125 3.125 -2.59375 C 2.957031 -3.882812 3.101562 -5.257812 3.5625 -6.71875 L 3.921875 -7.84375 C 4.398438 -9.34375 5.082031 -10.582031 5.96875 -11.5625 C 6.851562 -12.539062 7.867188 -13.175781 9.015625 -13.46875 C 10.160156 -13.769531 11.347656 -13.722656 12.578125 -13.328125 C 13.816406 -12.929688 14.8125 -12.28125 15.5625 -11.375 C 16.320312 -10.46875 16.773438 -9.363281 16.921875 -8.0625 C 17.066406 -6.757812 16.894531 -5.347656 16.40625 -3.828125 Z M 14.375 -4.5 C 14.96875 -6.34375 15.050781 -7.875 14.625 -9.09375 C 14.207031 -10.320312 13.335938 -11.148438 12.015625 -11.578125 C 10.710938 -11.992188 9.53125 -11.828125 8.46875 -11.078125 C 7.40625 -10.328125 6.582031 -9.085938 6 -7.359375 L 5.640625 -6.203125 C 5.066406 -4.421875 4.988281 -2.898438 5.40625 -1.640625 C 5.832031 -0.378906 6.707031 0.460938 8.03125 0.890625 C 9.351562 1.316406 10.53125 1.164062 11.5625 0.4375 C 12.59375 -0.289062 13.410156 -1.554688 14.015625 -3.359375 Z M 14.375 -4.5 "/></g></g></g><g fill="#000000" fill-opacity="1"><g transform="translate(300.050138, 175.816969)"><g/></g></g><g fill="#000000" fill-opacity="1"><g transform="translate(304.418043, 177.47027)"><g><path d="M 11.40625 8.859375 L 9.703125 7.53125 L 10.921875 -7.453125 L 3.203125 2.484375 L 1.5 1.15625 L 11.515625 -11.734375 L 13.21875 -10.40625 L 11.984375 4.640625 L 19.734375 -5.34375 L 21.421875 -4.03125 Z M 11.40625 8.859375 "/></g></g></g><g fill="#000000" fill-opacity="1"><g transform="translate(316.224473, 187.109949)"><g/></g></g><g fill="#000000" fill-opacity="1"><g transform="translate(319.707302, 190.91306)"><g><path d="M 2.5 3.375 L 1.21875 1.640625 L 14.34375 -8.078125 L 15.625 -6.34375 Z M 2.5 3.375 "/></g></g></g><g fill="#000000" fill-opacity="1"><g transform="translate(323.116865, 195.500587)"><g/></g></g><g fill="#000000" fill-opacity="1"><g transform="translate(325.936157, 199.291065)"><g><path d="M 7.953125 8.59375 L 5.453125 2.234375 L 0.921875 2.359375 L 0.109375 0.296875 L 17.59375 0.125 L 18.28125 1.890625 L 5.375 13.671875 L 4.5625 11.609375 Z M 7.328125 2.1875 L 9.359375 7.34375 L 15.453125 1.96875 Z M 7.328125 2.1875 "/></g></g></g><g fill="#000000" fill-opacity="1"><g transform="translate(233.136892, 270.366608)"><g><path d="M 0.828125 0 L 0.828125 -7.109375 L 3.15625 -7.109375 C 3.925781 -7.109375 4.503906 -6.945312 4.890625 -6.625 C 5.273438 -6.3125 5.46875 -5.84375 5.46875 -5.21875 C 5.46875 -4.882812 5.375 -4.585938 5.1875 -4.328125 C 5 -4.078125 4.742188 -3.878906 4.421875 -3.734375 C 4.804688 -3.628906 5.109375 -3.425781 5.328125 -3.125 C 5.554688 -2.820312 5.671875 -2.460938 5.671875 -2.046875 C 5.671875 -1.410156 5.460938 -0.910156 5.046875 -0.546875 C 4.628906 -0.179688 4.046875 0 3.296875 0 Z M 1.765625 -3.328125 L 1.765625 -0.765625 L 3.3125 -0.765625 C 3.75 -0.765625 4.09375 -0.878906 4.34375 -1.109375 C 4.59375 -1.335938 4.71875 -1.648438 4.71875 -2.046875 C 4.71875 -2.898438 4.253906 -3.328125 3.328125 -3.328125 Z M 1.765625 -4.078125 L 3.171875 -4.078125 C 3.585938 -4.078125 3.914062 -4.175781 4.15625 -4.375 C 4.40625 -4.582031 4.53125 -4.863281 4.53125 -5.21875 C 4.53125 -5.613281 4.414062 -5.898438 4.1875 -6.078125 C 3.957031 -6.253906 3.613281 -6.34375 3.15625 -6.34375 L 1.765625 -6.34375 Z M 1.765625 -4.078125 "/></g></g></g><g fill="#000000" fill-opacity="1"><g transform="translate(241.856754, 270.366608)"><g><path d="M 6.296875 -3.328125 C 6.296875 -2.628906 6.175781 -2.019531 5.9375 -1.5 C 5.707031 -0.976562 5.375 -0.582031 4.9375 -0.3125 C 4.507812 -0.0390625 4.007812 0.09375 3.4375 0.09375 C 2.882812 0.09375 2.390625 -0.0390625 1.953125 -0.3125 C 1.515625 -0.59375 1.175781 -0.984375 0.9375 -1.484375 C 0.707031 -1.992188 0.585938 -2.585938 0.578125 -3.265625 L 0.578125 -3.78125 C 0.578125 -4.457031 0.695312 -5.054688 0.9375 -5.578125 C 1.175781 -6.109375 1.507812 -6.507812 1.9375 -6.78125 C 2.375 -7.0625 2.875 -7.203125 3.4375 -7.203125 C 4 -7.203125 4.5 -7.0625 4.9375 -6.78125 C 5.375 -6.507812 5.707031 -6.113281 5.9375 -5.59375 C 6.175781 -5.070312 6.296875 -4.46875 6.296875 -3.78125 Z M 5.359375 -3.78125 C 5.359375 -4.625 5.1875 -5.269531 4.84375 -5.71875 C 4.507812 -6.175781 4.039062 -6.40625 3.4375 -6.40625 C 2.84375 -6.40625 2.375 -6.175781 2.03125 -5.71875 C 1.695312 -5.269531 1.523438 -4.644531 1.515625 -3.84375 L 1.515625 -3.328125 C 1.515625 -2.503906 1.6875 -1.859375 2.03125 -1.390625 C 2.375 -0.929688 2.84375 -0.703125 3.4375 -0.703125 C 4.039062 -0.703125 4.507812 -0.921875 4.84375 -1.359375 C 5.175781 -1.796875 5.347656 -2.425781 5.359375 -3.25 Z M 5.359375 -3.78125 "/></g></g></g><g fill="#000000" fill-opacity="1"><g transform="translate(251.22622, 270.366608)"><g><path d="M 6.296875 -3.328125 C 6.296875 -2.628906 6.175781 -2.019531 5.9375 -1.5 C 5.707031 -0.976562 5.375 -0.582031 4.9375 -0.3125 C 4.507812 -0.0390625 4.007812 0.09375 3.4375 0.09375 C 2.882812 0.09375 2.390625 -0.0390625 1.953125 -0.3125 C 1.515625 -0.59375 1.175781 -0.984375 0.9375 -1.484375 C 0.707031 -1.992188 0.585938 -2.585938 0.578125 -3.265625 L 0.578125 -3.78125 C 0.578125 -4.457031 0.695312 -5.054688 0.9375 -5.578125 C 1.175781 -6.109375 1.507812 -6.507812 1.9375 -6.78125 C 2.375 -7.0625 2.875 -7.203125 3.4375 -7.203125 C 4 -7.203125 4.5 -7.0625 4.9375 -6.78125 C 5.375 -6.507812 5.707031 -6.113281 5.9375 -5.59375 C 6.175781 -5.070312 6.296875 -4.46875 6.296875 -3.78125 Z M 5.359375 -3.78125 C 5.359375 -4.625 5.1875 -5.269531 4.84375 -5.71875 C 4.507812 -6.175781 4.039062 -6.40625 3.4375 -6.40625 C 2.84375 -6.40625 2.375 -6.175781 2.03125 -5.71875 C 1.695312 -5.269531 1.523438 -4.644531 1.515625 -3.84375 L 1.515625 -3.328125 C 1.515625 -2.503906 1.6875 -1.859375 2.03125 -1.390625 C 2.375 -0.929688 2.84375 -0.703125 3.4375 -0.703125 C 4.039062 -0.703125 4.507812 -0.921875 4.84375 -1.359375 C 5.175781 -1.796875 5.347656 -2.425781 5.359375 -3.25 Z M 5.359375 -3.78125 "/></g></g></g><g fill="#000000" fill-opacity="1"><g transform="translate(260.595685, 270.366608)"><g><path d="M 2.625 -3.3125 L 1.765625 -2.40625 L 1.765625 0 L 0.828125 0 L 0.828125 -7.109375 L 1.765625 -7.109375 L 1.765625 -3.59375 L 4.921875 -7.109375 L 6.0625 -7.109375 L 3.25 -3.96875 L 6.28125 0 L 5.15625 0 Z M 2.625 -3.3125 "/></g></g></g><g fill="#000000" fill-opacity="1"><g transform="translate(269.359997, 270.366608)"><g/></g></g><g fill="#000000" fill-opacity="1"><g transform="translate(274.328761, 270.366608)"><g/></g></g><g fill="#000000" fill-opacity="1"><g transform="translate(279.300408, 270.366608)"><g><path d="M 2.921875 -3.171875 C 2.117188 -3.398438 1.53125 -3.679688 1.15625 -4.015625 C 0.789062 -4.359375 0.609375 -4.773438 0.609375 -5.265625 C 0.609375 -5.828125 0.832031 -6.289062 1.28125 -6.65625 C 1.726562 -7.019531 2.3125 -7.203125 3.03125 -7.203125 C 3.519531 -7.203125 3.953125 -7.109375 4.328125 -6.921875 C 4.710938 -6.734375 5.007812 -6.472656 5.21875 -6.140625 C 5.4375 -5.804688 5.546875 -5.441406 5.546875 -5.046875 L 4.59375 -5.046875 C 4.59375 -5.484375 4.457031 -5.820312 4.1875 -6.0625 C 3.914062 -6.3125 3.53125 -6.4375 3.03125 -6.4375 C 2.570312 -6.4375 2.210938 -6.332031 1.953125 -6.125 C 1.691406 -5.925781 1.5625 -5.644531 1.5625 -5.28125 C 1.5625 -4.988281 1.679688 -4.742188 1.921875 -4.546875 C 2.171875 -4.347656 2.59375 -4.164062 3.1875 -4 C 3.78125 -3.832031 4.242188 -3.648438 4.578125 -3.453125 C 4.910156 -3.253906 5.15625 -3.019531 5.3125 -2.75 C 5.476562 -2.476562 5.5625 -2.164062 5.5625 -1.8125 C 5.5625 -1.226562 5.332031 -0.765625 4.875 -0.421875 C 4.425781 -0.078125 3.828125 0.09375 3.078125 0.09375 C 2.585938 0.09375 2.128906 0 1.703125 -0.1875 C 1.285156 -0.375 0.960938 -0.628906 0.734375 -0.953125 C 0.503906 -1.273438 0.390625 -1.644531 0.390625 -2.0625 L 1.328125 -2.0625 C 1.328125 -1.632812 1.484375 -1.296875 1.796875 -1.046875 C 2.117188 -0.796875 2.546875 -0.671875 3.078125 -0.671875 C 3.578125 -0.671875 3.957031 -0.769531 4.21875 -0.96875 C 4.476562 -1.175781 4.609375 -1.453125 4.609375 -1.796875 C 4.609375 -2.140625 4.484375 -2.40625 4.234375 -2.59375 C 3.992188 -2.789062 3.554688 -2.984375 2.921875 -3.171875 Z M 2.921875 -3.171875 "/></g></g></g><g fill="#000000" fill-opacity="1"><g transform="translate(287.727215, 270.366608)"><g><path d="M 5.734375 -6.34375 L 3.453125 -6.34375 L 3.453125 0 L 2.515625 0 L 2.515625 -6.34375 L 0.234375 -6.34375 L 0.234375 -7.109375 L 5.734375 -7.109375 Z M 5.734375 -6.34375 "/></g></g></g><g fill="#000000" fill-opacity="1"><g transform="translate(296.188212, 270.366608)"><g><path d="M 6.296875 -3.328125 C 6.296875 -2.628906 6.175781 -2.019531 5.9375 -1.5 C 5.707031 -0.976562 5.375 -0.582031 4.9375 -0.3125 C 4.507812 -0.0390625 4.007812 0.09375 3.4375 0.09375 C 2.882812 0.09375 2.390625 -0.0390625 1.953125 -0.3125 C 1.515625 -0.59375 1.175781 -0.984375 0.9375 -1.484375 C 0.707031 -1.992188 0.585938 -2.585938 0.578125 -3.265625 L 0.578125 -3.78125 C 0.578125 -4.457031 0.695312 -5.054688 0.9375 -5.578125 C 1.175781 -6.109375 1.507812 -6.507812 1.9375 -6.78125 C 2.375 -7.0625 2.875 -7.203125 3.4375 -7.203125 C 4 -7.203125 4.5 -7.0625 4.9375 -6.78125 C 5.375 -6.507812 5.707031 -6.113281 5.9375 -5.59375 C 6.175781 -5.070312 6.296875 -4.46875 6.296875 -3.78125 Z M 5.359375 -3.78125 C 5.359375 -4.625 5.1875 -5.269531 4.84375 -5.71875 C 4.507812 -6.175781 4.039062 -6.40625 3.4375 -6.40625 C 2.84375 -6.40625 2.375 -6.175781 2.03125 -5.71875 C 1.695312 -5.269531 1.523438 -4.644531 1.515625 -3.84375 L 1.515625 -3.328125 C 1.515625 -2.503906 1.6875 -1.859375 2.03125 -1.390625 C 2.375 -0.929688 2.84375 -0.703125 3.4375 -0.703125 C 4.039062 -0.703125 4.507812 -0.921875 4.84375 -1.359375 C 5.175781 -1.796875 5.347656 -2.425781 5.359375 -3.25 Z M 5.359375 -3.78125 "/></g></g></g><g fill="#000000" fill-opacity="1"><g transform="translate(305.557677, 270.366608)"><g><path d="M 3.4375 -2.875 L 1.765625 -2.875 L 1.765625 0 L 0.828125 0 L 0.828125 -7.109375 L 3.171875 -7.109375 C 3.972656 -7.109375 4.585938 -6.925781 5.015625 -6.5625 C 5.453125 -6.195312 5.671875 -5.664062 5.671875 -4.96875 C 5.671875 -4.53125 5.550781 -4.144531 5.3125 -3.8125 C 5.070312 -3.488281 4.738281 -3.242188 4.3125 -3.078125 L 5.984375 -0.0625 L 5.984375 0 L 4.96875 0 Z M 1.765625 -3.640625 L 3.203125 -3.640625 C 3.671875 -3.640625 4.039062 -3.757812 4.3125 -4 C 4.59375 -4.238281 4.734375 -4.5625 4.734375 -4.96875 C 4.734375 -5.40625 4.597656 -5.738281 4.328125 -5.96875 C 4.066406 -6.207031 3.691406 -6.332031 3.203125 -6.34375 L 1.765625 -6.34375 Z M 1.765625 -3.640625 "/></g></g></g><g fill="#000000" fill-opacity="1"><g transform="translate(314.20916, 270.366608)"><g><path d="M 4.84375 -3.28125 L 1.765625 -3.28125 L 1.765625 -0.765625 L 5.34375 -0.765625 L 5.34375 0 L 0.828125 0 L 0.828125 -7.109375 L 5.296875 -7.109375 L 5.296875 -6.34375 L 1.765625 -6.34375 L 1.765625 -4.046875 L 4.84375 -4.046875 Z M 4.84375 -3.28125 "/></g></g></g></svg>